<svg width="16" height="16" viewBox="0 0 16 16" fill="none" xmlns="http://www.w3.org/2000/svg">
<rect width="16" height="16" rx="2" fill="#6366f1"/>
<g transform="translate(2, 2) scale(0.046)">
<path d="M58.77 113.995C56.06 114.663 53.23 115.009 51.51 115.009C49.66 115.009 46.95 114.675 43.49 113.892V108.399L43.74 82.96C38.56 82.96 33.27 83.08 28.09 83.08C28.33 90.81 28.59 99.21 28.71 106.38C24.89 107.17 22.44 107.50 20.83 107.50C19.22 107.50 16.27 107.28 13.44 106.94L12.82 83.07H4.45V70.85H12.70L11.84 23.67C15.67 22.89 18.12 22.55 19.85 22.55C21.34 22.55 22.69 22.55 27.12 23.33L27.98 70.85C33.27 70.85 38.57 70.73 43.86 70.73C43.99 52.35 44.23 32.96 44.48 14.70C47.94 13.80 50.02 13.47 51.75 13.47C53.47 13.47 55.81 13.80 59.76 14.48L59.14 70.74C63.33 70.74 68.01 70.63 71.08 70.63V82.62L59.01 82.83C59.01 93.14 58.88 104.24 58.77 113.995Z" fill="white"/>
<path d="M123.4 115.78C119.21 118.21 115.71 119.49 112.38 119.63C111.88 119.65 111.39 119.56 111.02 119.57C109.62 116.26 108.67 110.14 108.56 107.89C105.14 110.96 99.76 114.00 95.33 114.19C83.27 114.72 73.36 109.09 72.77 97.79C72.08 84.80 81.03 74.43 95.05 73.82C98.25 73.68 102.37 74.51 105.65 75.94L105.34 70.12C104.48 58.49 102.62 58.35 98.30 58.42C91.29 58.73 84.71 62.60 81.45 66.00C77.49 63.36 76.40 56.68 76.66 52.41C82.36 48.23 89.03 46.03 96.53 45.71C113.39 44.97 120.06 52.19 121.03 70.56C121.29 75.37 121.54 87.14 121.72 90.39C122.36 102.60 124.22 109.69 127.67 111.90C127.07 112.27 125.35 114.70 123.43 115.79L123.4 115.78ZM95.67 83.44C91.24 83.64 88.29 90.72 88.51 94.87C88.85 101.36 91.83 104.03 95.89 103.86C99.58 103.70 104.10 100.70 105.76 96.92C106.95 93.83 106.58 91.49 106.80 88.57C103.19 85.70 99.86 83.26 95.67 83.44Z" fill="white"/>
</g>
</svg>