<svg width="260" height="260" viewBox="0 0 260 260" fill="none" xmlns="http://www.w3.org/2000/svg">
<g filter="url(#filter0_d_298_1357)">
<path d="M58.7697 113.995C56.0615 114.663 53.2267 115.009 51.5056 115.009C49.6579 115.009 46.9497 114.675 43.4948 113.892V108.399L43.7353 82.9613C38.5592 82.9613 33.2693 83.0765 28.0933 83.0765C28.3338 90.8148 28.5869 99.2096 28.7134 106.384C24.8915 107.167 22.4364 107.501 20.8292 107.501C19.222 107.501 16.2733 107.282 13.4385 106.936L12.8184 83.065H4.45325V70.8471H12.7045L11.8439 23.6685C15.6658 22.8854 18.121 22.5515 19.8547 22.5515C21.3354 22.5515 22.6895 22.5515 27.1189 23.3345L27.9794 70.8471C33.2693 70.8471 38.5719 70.732 43.8618 70.732C43.9884 52.3534 44.2288 32.9614 44.4819 14.698C47.9368 13.7998 50.0249 13.4658 51.746 13.4658C53.4672 13.4658 55.8084 13.7998 59.7568 14.4792L59.1367 70.7435C63.3256 70.7435 68.0081 70.6283 71.0833 70.6283V82.6159L59.0102 82.8346C59.0102 93.1409 58.8836 104.242 58.7697 113.995Z" fill="#1D232E"/>
<path d="M123.4 115.78C119.211 118.21 115.706 119.488 112.378 119.626C111.884 119.649 111.39 119.557 111.023 119.569C109.619 116.264 108.67 110.138 108.556 107.892C105.139 110.955 99.7602 113.995 95.3309 114.191C83.2704 114.721 73.3613 109.09 72.7665 97.793C72.0831 84.8037 81.0304 74.4283 95.0525 73.818C98.2542 73.6798 102.367 74.5089 105.645 75.9368L105.341 70.1215C104.481 58.4909 102.62 58.3528 98.3049 58.4219C91.2938 58.7328 84.7131 62.6019 81.448 65.999C77.4869 63.362 76.3986 56.683 76.6643 52.4108C82.3592 48.2307 89.0285 46.0313 96.5331 45.7088C113.39 44.9719 120.059 52.192 121.034 70.5591C121.287 75.3725 121.54 87.1413 121.717 90.3886C122.363 102.595 124.223 109.688 127.665 111.899C127.07 112.268 125.349 114.698 123.426 115.792L123.4 115.78ZM95.6726 83.4448C91.2432 83.6406 88.2945 90.7226 88.5097 94.8681C88.8514 101.363 91.8254 104.034 95.8877 103.862C99.583 103.7 104.101 100.695 105.759 96.9179C106.948 93.8317 106.581 91.4941 106.797 88.5692C103.19 85.7019 99.8615 83.2606 95.6726 83.4448Z" fill="#1D232E"/>
<path d="M156.38 113.868C139.624 113.5 131.031 102.583 131.031 86.9685C131.031 71.3536 141.118 55.3586 160.873 55.3586C170.136 55.3586 176.401 58.2145 184.032 65.1583C181.032 68.8777 177.907 72.3439 174.907 75.9482C168.099 69.8681 164.555 68.6359 163.049 68.6359C153.646 67.8874 149.154 78.0555 149.154 86.6115C149.154 94.4189 150.103 99.6239 160.05 99.6239C168.504 99.6239 172.035 96.5262 179.805 90.9413L186.348 102.595C182.399 106.441 172.174 114.248 156.367 113.88L156.38 113.868Z" fill="#1D232E"/>
<path d="M240.411 121.388C233.273 113.431 223.909 100.211 211.709 75.9943C210.481 77.1113 208.747 78.7926 206.419 80.8078C207.646 93.1408 208.267 98.2882 208.634 107.144L208.874 113.201C204.445 113.869 201.243 113.984 198.282 113.984C196.56 113.984 193.726 113.984 192.118 113.869C192.245 110.506 192.359 108.71 192.485 107.477C192.612 92.7953 191.372 85.0685 189.157 53.2399C187.93 36.0934 184.475 17.5997 183.121 2.46844C187.55 0.787194 190.385 0.453247 194.207 0.453247C195.561 0.453247 197.535 0.568401 199.876 0.902348C199.876 1.57024 199.75 2.5836 199.636 3.9309L199.876 14.5827C200.863 25.7871 201.85 36.2086 203.078 46.9755L205.052 65.2389C205.052 65.2389 213.67 56.9478 216.999 53.2514L231.033 37.1183C234.969 41.1487 240.765 46.4228 244.094 50.338C237.323 54.0345 227.224 61.3237 221.922 67.8184C226.845 79.2532 231.4 86.0818 237.564 95.5014C242.373 103.009 250.624 108.951 255.547 109.85C253.573 115.561 243.474 121.054 240.398 121.388H240.411Z" fill="#1D232E"/>
<path d="M48.9999 190.446C46.5574 191.713 44.5452 192.346 42.6596 192.346C42.3811 192.346 42.1027 192.277 41.8876 192.277C41.1915 190.377 40.8372 186.888 40.8372 185.621C38.8123 187.268 35.6865 188.857 33.1681 188.857C26.3342 188.857 20.9051 185.437 20.9051 179.034C20.9051 171.676 26.271 166.033 34.2185 166.033C36.0282 166.033 38.3314 166.609 40.1412 167.496V164.202C40.0019 157.604 38.9516 157.477 36.5217 157.42C32.548 157.42 28.7134 159.447 26.7645 161.289C24.6005 159.7 24.1828 155.9 24.4613 153.493C27.8023 151.271 31.6368 150.2 35.889 150.2C45.4311 150.2 48.9872 154.449 48.9872 164.847C48.9872 167.576 48.7721 174.232 48.7721 176.063C48.7721 182.973 49.6073 187.026 51.4929 188.362C51.1386 188.558 50.1009 189.882 48.9872 190.458L48.9999 190.446ZM34.3071 171.492C31.8013 171.492 29.9157 175.418 29.9157 177.768C29.9157 181.441 31.5229 183.03 33.8135 183.03C35.9016 183.03 38.5466 181.441 39.597 179.357C40.3689 177.641 40.2297 176.317 40.4322 174.67C38.4833 172.954 36.6736 171.503 34.3071 171.503V171.492Z" fill="#1D232E"/>
<path d="M130.664 197.033C125.033 204.806 116.655 207.938 109.581 207.938C104.341 207.938 99.2414 205.266 93.7363 200.867L93.0782 207.823L92.2936 224.29C91.9013 229.046 91.3824 235.425 90.1928 243.083L89.4082 251.547C83.7766 251.432 77.8792 250.499 73.0323 248.76C74.475 240.181 75.5253 232.293 76.31 226.604L76.8288 222.896C77.0946 220.812 77.0946 217.91 77.2212 214.548L77.6135 205.497C78.5247 198.426 80.4989 170.697 80.4989 164.893C80.4989 159.562 79.98 154.449 78.7904 149.935C84.1563 147.851 88.4844 146.687 92.0152 146.687C92.9264 146.687 96.3306 146.572 99.6084 147.851C99.3426 148.668 98.558 154 98.4314 156.671C102.747 152.963 109.176 150.407 114.402 150.407C115.187 150.407 115.706 150.407 116.364 150.522C130.373 152.837 137.055 165.838 137.055 176.743C137.055 177.56 136.929 178.482 136.929 179.299C136.41 184.873 134.309 191.943 130.639 197.044L130.664 197.033ZM120.452 171.4C117.959 161.658 113.77 162.936 112.719 162.936C105.784 162.936 99.8868 166.886 96.7483 173.265L95.9636 176.397C95.6979 180.347 95.5713 184.285 95.179 188.224L97.2798 190.078C100.95 192.864 103.962 194.258 106.05 194.488H107.885C110.505 194.143 112.998 192.749 115.478 190.193L117.047 188.108C119.54 184.746 120.452 180.681 120.97 176.628V175.465C120.97 173.841 120.705 172.447 120.452 171.4Z" fill="#1D232E"/>
<path d="M179.526 200.741C181.248 200.741 184.905 200.223 189.727 199.693C189.043 205.324 186.98 210.529 183.424 215.745L177.236 214.698C148.597 210.218 142.067 193.325 142.067 178.631C142.067 160.494 154.899 149.647 166.352 149.647H167.96C183.766 150.476 191.676 160.909 191.676 180.405V182.074L157.759 187.705C160.733 196.561 167.96 200.741 179.526 200.741ZM166.808 160.713C160.961 160.713 156.38 169.787 156.38 177.284L175.401 174.152C174.831 164.352 173.11 160.702 166.808 160.702V160.713Z" fill="#1D232E"/>
<path d="M220.58 174.267C220.58 177.284 220.466 185.287 220.466 197.816C220.466 202.457 221.934 207.673 224.63 207.673C227.325 207.673 231.388 201.293 232.286 198.046C236.678 198.392 240.057 199.9 242.752 203.263C238.703 217.415 228.793 223.322 219.568 223.322C218.783 223.322 217.657 223.207 216.644 222.862H216.758C209.216 221.353 206.065 214.628 206.065 202.215V190.964C206.065 189.571 206.178 188.062 206.178 186.439V175.533L196.725 176.224V162.89C199.421 162.89 204.268 162.89 205.837 162.774C205.837 149.324 206.508 143.175 207.748 126.351C209.216 126.236 210.671 126.121 212.139 126.121C215.746 126.121 218.998 126.697 221.934 127.86C220.808 139.801 220.137 151.294 220.137 161.266L231.16 160.333L241.17 159.642C242.638 162.774 242.411 166.137 242.411 168.106C242.411 170.075 242.183 172.516 241.955 173.795C235.994 174.025 229.692 173.564 220.568 174.255L220.58 174.267Z" fill="#1D232E"/>
<path d="M52.4421 197.724H20.6773V205.75H52.4421V197.724Z" fill="#1D232E"/>
</g>
<defs>
<filter id="filter0_d_298_1357" x="0.453247" y="0.453247" width="259.094" height="259.094" filterUnits="userSpaceOnUse" color-interpolation-filters="sRGB">
<feFlood flood-opacity="0" result="BackgroundImageFix"/>
<feColorMatrix in="SourceAlpha" type="matrix" values="0 0 0 0 0 0 0 0 0 0 0 0 0 0 0 0 0 0 127 0" result="hardAlpha"/>
<feOffset dy="4"/>
<feGaussianBlur stdDeviation="2"/>
<feComposite in2="hardAlpha" operator="out"/>
<feColorMatrix type="matrix" values="0 0 0 0 0 0 0 0 0 0 0 0 0 0 0 0 0 0 0.25 0"/>
<feBlend mode="normal" in2="BackgroundImageFix" result="effect1_dropShadow_298_1357"/>
<feBlend mode="normal" in="SourceGraphic" in2="effect1_dropShadow_298_1357" result="shape"/>
</filter>
</defs>
</svg>
